<svg preserveAspectRatio="xMidYMid meet" data-bbox="29.412 30.999 141.002 138" viewBox="29.412 30.999 141.002 138" height="200" width="200" xmlns="http://www.w3.org/2000/svg" data-type="color" role="presentation" aria-hidden="true">
    <g>
        <path fill="white" d="M120.549 98.527v70.455h-5.88V98.527h5.88z" data-color="1"></path>
        <path fill="white" d="M115.531 135.831l-11.762-11.739 4.156-4.153 11.762 11.739-4.156 4.153z" data-color="1"></path>
        <path fill="white" d="M119.688 135.829l-4.158-4.15 11.756-11.746 4.158 4.15-11.756 11.746z" data-color="1"></path>
        <path d="M61.759 154.32c-17.831.005-32.342-14.477-32.347-32.282-.005-16.886 28.63-61.364 29.85-63.25 1.082-1.675 3.855-1.675 4.938-.001 1.221 1.885 29.882 46.346 29.887 63.232.006 17.806-14.497 32.296-32.328 32.301zm-.026-88.457c-9.174 14.695-26.445 44.725-26.442 56.173.004 14.568 11.877 26.417 26.466 26.413s26.455-11.861 26.45-26.428c-.003-11.453-17.291-41.471-26.474-56.158z" fill="white" data-color="1"></path>
        <path fill="white" d="M64.693 95.608v73.391h-5.88V95.608h5.88z" data-color="1"></path>
        <path fill="white" d="M59.675 135.847l-14.703-14.674 4.156-4.152 14.703 14.674-4.156 4.152z" data-color="1"></path>
        <path fill="white" d="M63.828 121.168l-4.158-4.15 11.755-11.746 4.159 4.15-11.756 11.746z" data-color="1"></path>
        <path d="M143.018 151.361l-51.861.015-.002-5.871 51.861-.015c11.868-.003 21.52-9.647 21.517-21.499-.003-11.85-9.661-21.488-21.529-21.485-1.499 0-2.916-1.119-3.081-2.605-1.179-10.651-10.987-18.991-22.328-18.988-10.8.003-19.204 7.816-20.435 19l-5.845-.643c1.546-14.035 12.597-24.224 26.279-24.228 13.404-.004 25.12 9.347 27.769 21.71 14.081 1.25 25.047 12.988 25.051 27.238.003 15.087-12.287 27.366-27.396 27.371z" fill="white" data-color="1"></path>
        <path d="M112.982 73.465c-5.761-11.028-12.455-21.899-15.977-27.468-3.52 5.571-10.207 16.446-15.961 27.477l-5.214-2.713C84.177 54.756 94.443 39.1 94.545 38.944c1.088-1.654 3.826-1.655 4.915-.001.102.156 10.377 15.806 18.735 31.806l-5.213 2.716z" fill="white" data-color="1"></path>
        <path d="M145.516 63.291c-8.916.003-16.171-7.238-16.174-16.141s7.249-16.148 16.164-16.151c8.916-.003 16.171 7.238 16.174 16.141.003 8.903-7.248 16.149-16.164 16.151zm-.007-26.421c-5.673.002-10.288 4.613-10.286 10.278.002 5.665 4.619 10.273 10.292 10.272 5.673-.002 10.288-4.613 10.286-10.278-.002-5.665-4.619-10.273-10.292-10.272z" fill="white" data-color="1"></path>
    </g>
</svg>