<svg preserveAspectRatio="xMidYMid meet" data-bbox="41 41 118.001 118" viewBox="41 41 118.001 118" height="200" width="200" xmlns="http://www.w3.org/2000/svg" data-type="color" role="presentation" aria-hidden="true">
    <g>
        <path d="M157.419 86.503c-3.6-15.33-12.955-28.339-26.345-36.634-13.387-8.297-29.21-10.885-44.544-7.288-15.339 3.596-28.356 12.948-36.654 26.331-8.304 13.383-10.894 29.197-7.294 44.526 3.6 15.328 12.957 28.339 26.347 36.632 9.635 5.971 20.399 8.93 31.125 8.93 12.471 0 24.886-4 35.415-11.917l-5.081-6.75c-16.779 12.617-39.154 13.619-57.006 2.557-11.472-7.107-19.487-18.252-22.572-31.384-3.083-13.132-.865-26.677 6.248-38.144 7.11-11.466 18.262-19.477 31.401-22.558 13.136-3.08 26.689-.864 38.161 6.245 11.47 7.105 19.485 18.25 22.568 31.382 2.908 12.378 1.105 25.12-5.065 36.145l-18.036-.001V75.258h-8.452v6.985c-5.52-5.75-13.278-9.341-21.86-9.341-16.712 0-30.312 13.59-30.312 30.295 0 16.706 13.6 30.297 30.312 30.297 8.582 0 16.34-3.591 21.86-9.342v8.87l31.253.001 1.239-1.998c8.302-13.382 10.89-29.195 7.292-44.522zm-61.644 38.543c-12.055 0-21.86-9.802-21.86-21.85 0-12.047 9.805-21.848 21.86-21.848 12.054 0 21.86 9.8 21.86 21.848 0 12.049-9.805 21.85-21.86 21.85z" fill="#417885" data-color="1"></path>
    </g>
</svg>