<svg preserveAspectRatio="xMidYMid meet" data-bbox="39.5 45 121 110" viewBox="39.5 45 121 110" height="200" width="200" xmlns="http://www.w3.org/2000/svg" data-type="color" role="presentation" aria-hidden="true"><defs><style>#comp-jmcxh1q3 svg [data-color="1"] {fill: #91C1CC;}</style></defs>
    <g>
        <path d="M100 155l-50.845-50.92C43.111 97.644 39.5 88.53 39.5 79.703 39.5 60.566 55.046 45 74.153 45 84.179 45 93.484 49.258 100 56.621 106.52 49.258 115.823 45 125.847 45c19.107 0 34.653 15.566 34.653 34.703 0 8.828-3.611 17.943-9.655 24.377l-.087.089L100 155zM55.249 98.255L100 143.068l44.753-44.813c4.587-4.906 7.322-11.836 7.322-18.551 0-14.484-11.763-26.266-26.228-26.266-9.108 0-17.433 4.651-22.27 12.446l-3.579 5.769-3.575-5.769c-4.834-7.795-13.159-12.446-22.27-12.446-14.463 0-26.228 11.782-26.228 26.266 0 6.712 2.738 13.642 7.324 18.551z" fill="#417885" data-color="1"></path>
    </g>
</svg>