<svg preserveAspectRatio="xMidYMid meet" data-bbox="31.5 49 137.001 102.001" viewBox="31.5 49 137.001 102.001" height="200" width="200" xmlns="http://www.w3.org/2000/svg" data-type="color" role="presentation" aria-hidden="true">
    <g>
        <path d="M146.346 119.896c-1.285-.253-2.562-.499-3.821-.744l-1.769-.344v13.64c0 5.595-4.586 10.146-10.224 10.146H69.468c-5.637 0-10.224-4.552-10.224-10.146v-13.64c-.577.111-1.148.223-1.737.338-1.269.246-2.556.496-3.856.751-.958.187-1.92.313-2.88.399v12.153c0 10.23 8.387 18.552 18.696 18.552h61.064c10.308 0 18.695-8.322 18.695-18.552v-12.153a28.189 28.189 0 0 1-2.88-.4z" fill="#91C1CC" data-color="1"></path>
        <path d="M100.001 57.406c37.969.001 55.334 12.657 58.411 22.416 2.698 8.556 1.369 15.098.684 16.796-.614 1.523-2.671 5.781-7.478 5.781a9.155 9.155 0 0 1-1.759-.178c-8.655-1.694-16.886-3.211-22.064-4.67-1.753-.492-5.556-3.055-5.815-7.382-.221-3.732.854-5.771.344-8.15-.356-1.635-1.855-4.592-5.648-5.941-4.528-1.61-8.827-2.355-16.675-2.419-7.848.065-12.147.809-16.678 2.419-3.789 1.349-5.29 4.308-5.646 5.94-.511 2.379.565 4.417.345 8.151-.263 4.329-4.062 6.889-5.817 7.382-5.177 1.459-13.406 2.975-22.064 4.67a9.07 9.07 0 0 1-1.76.178c-4.803 0-6.864-4.258-7.48-5.78-.683-1.7-2.012-8.241.686-16.797 3.079-9.759 20.441-22.416 58.414-22.416zm0-8.406c-18.487 0-33.921 2.803-45.873 8.335-10.817 5.006-18.143 12.1-20.625 19.976-3.291 10.431-1.845 19.001-.472 22.421 2.806 6.941 8.541 11.074 15.349 11.074 1.114 0 2.257-.114 3.399-.336 1.304-.256 2.595-.507 3.869-.753 7.269-1.412 14.134-2.745 18.87-4.079 5.447-1.528 11.495-7.294 11.96-14.965.156-2.648-.125-4.653-.33-6.117l-.072-.523c.033-.012.069-.027.107-.04 3.293-1.171 6.616-1.863 13.818-1.926 7.201.063 10.522.756 13.818 1.928.038.013.073.027.104.04a44.97 44.97 0 0 1-.071.519c-.204 1.466-.486 3.475-.33 6.111.463 7.675 6.508 13.442 11.962 14.976 4.74 1.335 11.619 2.669 18.902 4.082 1.263.245 2.543.494 3.833.748a17.8 17.8 0 0 0 3.4.336c6.814 0 12.55-4.137 15.344-11.064 1.378-3.422 2.828-11.993-.465-22.431-2.485-7.875-9.808-14.969-20.626-19.976C133.92 51.805 118.487 49 100.001 49z" fill="#91C1CC" data-color="1"></path>
    </g>
</svg>